<svg width="93" height="93" viewBox="0 0 93 93" fill="none" xmlns="http://www.w3.org/2000/svg">
    <rect x=".5" y=".5" width="92" height="92" rx="46" stroke="#ED2027"/>
    <path d="M43.853 22.026c.08-.012.161-.021.243-.026.147.497.186 1.034.456 1.49.594 1.016 1.478 1.833 2.086 2.84a2.38 2.38 0 0 1 .182 2.06c-.423 1.092-1.114 2.053-1.738 3.042-.321.511-.719.971-1.048 1.478-.24.4-.558.762-.971.996-.084-.503.104-1.036-.115-1.52-.578-1.194-1.813-1.944-2.338-3.169a2.373 2.373 0 0 1 .142-1.752c.762-1.531 1.66-2.993 2.531-4.466.195-.321.304-.697.57-.973zM48.231 32.488c1.03-.128 2.125-.135 3.09.287 1.659.695 2.915 2.236 3.225 3.975.25.922.312 1.883.26 2.834-.015.985-.258 1.955-.605 2.876a10.49 10.49 0 0 1-2.277 3.542c-.629.607-1.228 1.25-1.938 1.77-.897.67-1.94 1.197-3.07 1.344-.564.072-1.123.23-1.696.2-1.54-.117-3.051-.475-4.503-.982-1.086-.39-2.188-.732-3.284-1.094-.79-.191-1.575-.465-2.398-.473-.371-.006-.598.339-.712.641-.338.945-.594 1.915-.853 2.883-.133.526-.301 1.044-.385 1.581-.099.605-.162 1.214-.232 1.822a9.94 9.94 0 0 0 .638 4.292c.35.893.964 1.712 1.824 2.191 1.184.724 2.669.694 3.99.411 1.317-.328 2.61-.765 3.83-1.355 1.09-.52 2.105-1.173 3.105-1.842a438.54 438.54 0 0 1 6.231-4.108 28.461 28.461 0 0 1 3.661-1.962c.581-.26 1.203-.413 1.82-.569.447-.096.948-.077 1.344.17.234.15.431.348.654.513.341.273.775.417 1.09.725.302.3.628.671.559 1.125-.607.051-1.207-.178-1.811-.056-.872.105-1.643.54-2.413.92-.667.327-1.271.76-1.886 1.169-.909.604-1.817 1.21-2.667 1.893-2.125 1.597-4.128 3.349-6.327 4.852a42.794 42.794 0 0 1-3.12 1.953c-1.272.658-2.573 1.307-3.984 1.628-1.33.324-2.734.571-4.095.28-.895-.182-1.847-.385-2.546-1.002-.868-.788-1.324-1.896-1.668-2.98-.189-.789-.384-1.587-.384-2.402.008-.452-.127-.902-.06-1.353.116-.678.01-1.371.142-2.047.16-.783.23-1.58.398-2.361.212-.844.388-1.698.64-2.533.287-.986.62-1.96.955-2.931.166-.483.514-.922.482-1.455-.442-.097-.89.021-1.304.17-.4.149-.812.275-1.186.483-.453.237-.86.546-1.28.83-.127.09-.352.146-.446-.016-.074-.15-.031-.327.03-.474.503-1.25 1.5-2.279 2.691-2.935.435-.198.785-.524 1.092-.878.488-.557 1.068-1.045 1.74-1.377.33-.176.712-.247 1.015-.473.283-.192.492-.467.66-.757 1.546-2.472 3.536-4.708 5.968-6.381.45-.373.984-.624 1.502-.89 1.39-.79 2.891-1.45 4.494-1.674zm-4.556 3.672c-1.016.384-1.913.999-2.776 1.636-.767.593-1.438 1.291-2.12 1.973-.475.486-.831 1.067-1.29 1.567-.17.175-.1.43-.093.646.854.019 1.71.077 2.557.194 2.499.463 4.833 1.5 7.295 2.097.664.203 1.36.25 2.046.346.484.069.972-.022 1.449-.105.488-.086.766-.524 1.106-.83.614-.579.885-1.425.934-2.24-.028-.745.063-1.497-.06-2.237-.198-.793-.655-1.515-1.23-2.1-.425-.383-.867-.764-1.396-1.006a7.433 7.433 0 0 0-2.179-.58c-1.44-.13-2.904.114-4.243.639z" fill="#EB5459"/>
    <path d="M60.204 54.745c.645-.306 1.385-.358 2.089-.278.327.05.567.293.795.507.38.36.862.61 1.192 1.02.225.288.477.605.44.992-.086.035-.168.096-.265.084-.306-.008-.611-.058-.918-.047a4.244 4.244 0 0 0-1.721.445c-1.17.548-2.21 1.321-3.199 2.132-.869.733-1.734 1.471-2.535 2.275-1.015.998-2.038 1.988-3.108 2.931a50.834 50.834 0 0 1-2.517 2.284 17.605 17.605 0 0 1-2.777 1.907c-.667.37-1.382.675-2.137.825-1.101.18-2.248.267-3.34-.016a5.946 5.946 0 0 1-1.026-.356c-.548-.249-1.175-.24-1.73-.473-.775-.313-1.521-.786-1.975-1.493-.12-.171-.096-.386-.093-.582.42-.01.794.19 1.194.277 1.35.174 2.71-.118 3.984-.545.469-.165.95-.304 1.4-.512.745-.333 1.438-.76 2.145-1.16 1.17-.663 2.228-1.495 3.255-2.35 1.89-1.601 3.796-3.185 5.769-4.688 1.566-1.234 3.204-2.427 5.078-3.179z" fill="#EB5459"/>
</svg>
