<svg width="20" height="20" viewBox="0 0 20 20" fill="none" xmlns="http://www.w3.org/2000/svg">
    <path d="M2.692 16.275c0 .3.066.608.208.908.142.3.325.584.567.85.408.45.858.775 1.366.984.5.208 1.042.316 1.625.316.85 0 1.759-.2 2.717-.608a14.643 14.643 0 0 0 2.867-1.65 23.95 23.95 0 0 0 2.733-2.333 23.66 23.66 0 0 0 2.325-2.725c.683-.95 1.233-1.9 1.633-2.842.4-.95.6-1.858.6-2.725 0-.567-.1-1.108-.3-1.608a3.835 3.835 0 0 0-.958-1.392c-.533-.525-1.117-.783-1.733-.783-.234 0-.467.05-.675.15-.217.1-.409.25-.559.466l-1.933 2.725c-.15.209-.258.4-.333.584-.075.175-.117.35-.117.508 0 .2.058.4.175.592.108.191.267.391.467.591l.633.659c.092.091.133.2.133.333a.76.76 0 0 1-.025.192c-.025.066-.05.116-.066.166-.15.275-.409.634-.775 1.067-.375.433-.775.875-1.209 1.317-.45.441-.883.85-1.325 1.225-.433.366-.791.616-1.075.766-.041.017-.091.042-.15.067a.575.575 0 0 1-.208.033.458.458 0 0 1-.342-.141l-.633-.625a2.557 2.557 0 0 0-.6-.467 1.11 1.11 0 0 0-.592-.175 1.33 1.33 0 0 0-.508.108 3.22 3.22 0 0 0-.583.325l-2.759 1.959c-.216.15-.366.325-.458.533a1.71 1.71 0 0 0-.133.65z" stroke="#535353" stroke-width="1.2" stroke-miterlimit="10"/>
    <path d="M5.583 8.5c0-.5.392-1.267.975-1.892C7.092 6.033 7.8 5.583 8.5 5.583M2.667 8.5A5.83 5.83 0 0 1 8.5 2.667" stroke="#535353" stroke-width="1.2" stroke-linecap="round" stroke-linejoin="round"/>
</svg>
