<svg width="36" height="36" viewBox="0 0 36 36" fill="none" xmlns="http://www.w3.org/2000/svg">
    <path opacity=".4" d="M10.095 29.55c1.23-1.32 3.105-1.215 4.185.225l1.515 2.025c1.215 1.605 3.18 1.605 4.395 0l1.515-2.025c1.08-1.44 2.955-1.545 4.185-.225 2.67 2.85 4.845 1.905 4.845-2.085V10.56C30.75 4.515 29.34 3 23.67 3H12.33c-5.67 0-7.08 1.515-7.08 7.56v16.89c0 4.005 2.19 4.935 4.845 2.1z" fill="#ED2027"/>
    <path d="M24 11.625H12c-.615 0-1.125-.51-1.125-1.125s.51-1.125 1.125-1.125h12c.615 0 1.125.51 1.125 1.125s-.51 1.125-1.125 1.125zM22.5 17.625h-9c-.615 0-1.125-.51-1.125-1.125s.51-1.125 1.125-1.125h9c.615 0 1.125.51 1.125 1.125s-.51 1.125-1.125 1.125z" fill="#ED2027"/>
</svg>
