<svg width="36" height="36" viewBox="0 0 36 36" fill="none" xmlns="http://www.w3.org/2000/svg">
    <path opacity=".4" d="M28.5 15.42v10.725c-.045 4.275-1.215 5.355-5.67 5.355H8.67C4.14 31.5 3 30.375 3 25.905V15.42c0-4.05.945-5.355 4.5-5.565.36-.015.75-.03 1.17-.03h14.16c4.53 0 5.67 1.125 5.67 5.595z" fill="#ED2027"/>
    <path d="M33 10.095V20.58c0 4.05-.945 5.355-4.5 5.565V15.42c0-4.47-1.14-5.595-5.67-5.595H8.67c-.42 0-.81.015-1.17.03C7.545 5.58 8.715 4.5 13.17 4.5h14.16c4.53 0 5.67 1.125 5.67 5.595zM10.44 27.84H7.86c-.615 0-1.125-.51-1.125-1.125s.51-1.125 1.125-1.125h2.58c.615 0 1.125.51 1.125 1.125s-.495 1.125-1.125 1.125zM18.825 27.84h-5.16c-.615 0-1.125-.51-1.125-1.125s.51-1.125 1.125-1.125h5.16c.615 0 1.125.51 1.125 1.125s-.495 1.125-1.125 1.125z" fill="#ED2027"/>
    <path d="M28.5 17.79H3v2.25h25.5v-2.25z" fill="#ED2027"/>
</svg>
