<svg width="36" height="36" viewBox="0 0 36 36" fill="none" xmlns="http://www.w3.org/2000/svg">
    <path d="M28.5 22.5c-3.315 0-6 2.685-6 6 0 1.125.315 2.19.87 3.09a5.955 5.955 0 0 0 5.13 2.91c2.19 0 4.095-1.17 5.13-2.91.555-.9.87-1.965.87-3.09 0-3.315-2.685-6-6-6zm3.105 5.355L28.41 30.81c-.21.195-.495.3-.765.3-.285 0-.57-.105-.795-.33l-1.485-1.485a1.132 1.132 0 0 1 0-1.59 1.132 1.132 0 0 1 1.59 0l.72.72 2.4-2.22c.45-.42 1.17-.39 1.59.06.42.45.39 1.155-.06 1.59zM33 11.31v2.19H3v-2.19C3 7.875 5.79 5.1 9.225 5.1h17.55C30.21 5.1 33 7.875 33 11.31z" fill="#ED2027"/>
    <path opacity=".4" d="M3 13.5v11.19a6.203 6.203 0 0 0 6.21 6.21h9.39c.87 0 1.62-.735 1.545-1.605-.21-2.295.525-4.785 2.565-6.765a7.616 7.616 0 0 1 3-1.815c1.875-.6 3.69-.525 5.295.015.975.33 1.995-.375 1.995-1.41V13.5H3zm9 12.375H9c-.615 0-1.125-.51-1.125-1.125s.51-1.125 1.125-1.125h3c.615 0 1.125.51 1.125 1.125s-.51 1.125-1.125 1.125z" fill="#ED2027"/>
    <path d="M13.125 24.75c0 .615-.51 1.125-1.125 1.125H9c-.615 0-1.125-.51-1.125-1.125s.51-1.125 1.125-1.125h3c.615 0 1.125.51 1.125 1.125z" fill="#ED2027"/>
</svg>
