<svg width="36" height="36" viewBox="0 0 36 36" fill="none" xmlns="http://www.w3.org/2000/svg">
    <path d="M22.5 34.125h-9c-8.145 0-11.625-3.48-11.625-11.625v-9c0-8.145 3.48-11.625 11.625-11.625h9c8.145 0 11.625 3.48 11.625 11.625v9c0 8.145-3.48 11.625-11.625 11.625zm-9-30c-6.915 0-9.375 2.46-9.375 9.375v9c0 6.915 2.46 9.375 9.375 9.375h9c6.915 0 9.375-2.46 9.375-9.375v-9c0-6.915-2.46-9.375-9.375-9.375h-9z" fill="#1ECAD3"/>
    <path d="M15.87 23.37c-.3 0-.585-.12-.795-.33l-4.245-4.245a1.132 1.132 0 0 1 0-1.59 1.132 1.132 0 0 1 1.59 0l3.45 3.45 7.71-7.71a1.132 1.132 0 0 1 1.59 0 1.132 1.132 0 0 1 0 1.59l-8.505 8.505c-.21.21-.495.33-.795.33z" fill="#1ECAD3"/>
</svg>
