<svg width="36" height="36" viewBox="0 0 36 36" fill="none" xmlns="http://www.w3.org/2000/svg">
    <path opacity=".4" d="M30.635 32.25c0 .42-.33.75-.75.75H4.115c-.42 0-.75-.33-.75-.75C3.365 26.04 9.485 21 17 21c1.545 0 3.045.21 4.425.615A6.033 6.033 0 0 0 20 25.5c0 1.125.315 2.19.87 3.09.3.51.69.975 1.14 1.365A5.881 5.881 0 0 0 26 31.5c1.68 0 3.195-.69 4.275-1.8.24.81.36 1.665.36 2.55z" fill="#ED2027"/>
    <path d="M30.455 21.495A5.916 5.916 0 0 0 26 19.5a5.992 5.992 0 0 0-6 6c0 1.125.315 2.19.87 3.09.3.51.69.975 1.14 1.365A5.881 5.881 0 0 0 26 31.5c2.19 0 4.095-1.17 5.13-2.91.315-.51.555-1.095.69-1.695.12-.45.18-.915.18-1.395 0-1.53-.585-2.94-1.545-4.005zm-2.205 5.1h-1.125v1.17c0 .615-.51 1.125-1.125 1.125s-1.125-.51-1.125-1.125v-1.17H23.75c-.615 0-1.125-.51-1.125-1.125s.51-1.125 1.125-1.125h1.125V23.28c0-.615.51-1.125 1.125-1.125s1.125.51 1.125 1.125v1.065h1.125c.615 0 1.125.51 1.125 1.125s-.51 1.125-1.125 1.125zM17 18a7.5 7.5 0 1 0 0-15 7.5 7.5 0 0 0 0 15z" fill="#ED2027"/>
</svg>
