<svg width="36" height="36" viewBox="0 0 36 36" fill="none" xmlns="http://www.w3.org/2000/svg">
    <path opacity=".4" d="m29.31 9.81-4.605-4.605A7.505 7.505 0 0 0 19.395 3H12c-4.5 0-7.5 3-7.5 7.5v15c0 4.5 3 7.5 7.5 7.5h12c4.5 0 7.5-3 7.5-7.5V15.105c0-1.995-.795-3.9-2.19-5.295z" fill="#ED2027"/>
    <path d="M17.25 19.875V14.25H15a4.513 4.513 0 0 0-4.5 4.5v1.5h6.375c.21 0 .375-.165.375-.375zM19.125 20.25H25.5v-1.5c0-2.475-2.025-4.5-4.5-4.5h-2.25v5.625c0 .21.165.375.375.375zM16.875 21.75H10.5v1.5c0 2.475 2.025 4.5 4.5 4.5h2.25v-5.625a.371.371 0 0 0-.375-.375zM18.75 22.125v5.625H21c2.475 0 4.5-2.025 4.5-4.5v-1.5h-6.375a.371.371 0 0 0-.375.375z" fill="#ED2027"/>
</svg>
