<svg width="36" height="36" viewBox="0 0 36 36" fill="none" xmlns="http://www.w3.org/2000/svg">
    <path d="M11.475 31.365c-.045 0-.105.03-.15.03A15.009 15.009 0 0 1 4.59 24.66c0-.045.03-.105.03-.15 1.83.54 3.72.945 5.595 1.26.33 1.89.72 3.765 1.26 5.595zM31.41 24.675c-1.485 2.985-3.96 5.4-6.975 6.855.57-1.905 1.05-3.825 1.365-5.76 1.89-.315 3.75-.72 5.58-1.26-.015.06.03.12.03.165zM31.53 11.565A47.465 47.465 0 0 0 25.8 10.2a41.872 41.872 0 0 0-1.365-5.73 15.078 15.078 0 0 1 7.095 7.095zM11.475 4.635c-.54 1.83-.93 3.69-1.245 5.58-1.935.3-3.855.78-5.76 1.35 1.455-3.015 3.87-5.49 6.855-6.975.045 0 .105.045.15.045z" fill="#ED2027"/>
    <path opacity=".6" d="M23.235 9.885c-3.48-.39-6.99-.39-10.47 0 .375-2.055.855-4.11 1.53-6.09.03-.12.015-.21.03-.33C15.51 3.18 16.725 3 18 3c1.26 0 2.49.18 3.66.465.015.12.015.21.045.33.675 1.995 1.155 4.035 1.53 6.09z" fill="#ED2027"/>
    <path d="M9.885 23.235c-2.07-.375-4.11-.855-6.09-1.53-.12-.03-.21-.015-.33-.03C3.18 20.49 3 19.275 3 18c0-1.26.18-2.49.465-3.66.12-.015.21-.015.33-.045a44.655 44.655 0 0 1 6.09-1.53 48.861 48.861 0 0 0 0 10.47zM33 18c0 1.275-.18 2.49-.465 3.675-.12.015-.21 0-.33.03a45.215 45.215 0 0 1-6.09 1.53c.39-3.48.39-6.99 0-10.47 2.055.375 4.11.855 6.09 1.53.12.03.21.045.33.045.285 1.185.465 2.4.465 3.66z" fill="#ED2027"/>
    <path opacity=".6" d="M23.235 26.115c-.375 2.07-.855 4.11-1.53 6.09-.03.12-.03.21-.045.33-1.17.285-2.4.465-3.66.465-1.275 0-2.49-.18-3.675-.465-.015-.12 0-.21-.03-.33a44.655 44.655 0 0 1-1.53-6.09c1.74.195 3.48.33 5.235.33 1.755 0 3.51-.135 5.235-.33zM23.645 23.645a45.062 45.062 0 0 1-11.29 0 45.062 45.062 0 0 1 0-11.29 45.062 45.062 0 0 1 11.29 0 45.062 45.062 0 0 1 0 11.29z" fill="#ED2027"/>
</svg>
