<svg width="36" height="36" viewBox="0 0 36 36" fill="none" xmlns="http://www.w3.org/2000/svg">
    <path opacity=".4" d="M27 30.75h-1.5v-.375c0-1.65-1.35-3-3-3h-3.375V23.94c-.375.045-.75.06-1.125.06s-.75-.015-1.125-.06v3.435H13.5c-1.65 0-3 1.35-3 3v.375H9c-.615 0-1.125.51-1.125 1.125S8.385 33 9 33h18c.615 0 1.125-.51 1.125-1.125S27.615 30.75 27 30.75zM8.28 17.46c-.99-.375-1.86-.99-2.55-1.68-1.395-1.545-2.31-3.39-2.31-5.55a3.816 3.816 0 0 1 3.855-3.855h.84A5.93 5.93 0 0 0 7.5 9v4.5c0 1.41.27 2.745.78 3.96zM32.58 10.23c0 2.16-.915 4.005-2.31 5.55-.69.69-1.56 1.305-2.55 1.68.51-1.215.78-2.55.78-3.96V9a5.93 5.93 0 0 0-.615-2.625h.84a3.816 3.816 0 0 1 3.855 3.855z" fill="#ED2027"/>
    <path d="M22.5 3h-9c-3.315 0-6 2.685-6 6v4.5C7.5 19.305 12.195 24 18 24s10.5-4.695 10.5-10.5V9c0-3.315-2.685-6-6-6zm-.24 9.675-.93 1.14c-.15.165-.255.495-.24.72l.09 1.47c.06.9-.585 1.365-1.425 1.035l-1.365-.54a1.38 1.38 0 0 0-.78 0l-1.365.54c-.84.33-1.485-.135-1.425-1.035l.09-1.47c.015-.225-.09-.555-.24-.72l-.93-1.14c-.585-.69-.33-1.455.54-1.68l1.425-.36c.225-.06.495-.27.615-.465l.795-1.23c.495-.765 1.275-.765 1.77 0l.795 1.23c.12.195.39.405.615.465l1.425.36c.87.225 1.125.99.54 1.68z" fill="#ED2027"/>
    <path opacity=".4" d="m22.26 12.675-.93 1.14c-.15.165-.255.495-.24.72l.09 1.47c.06.9-.585 1.365-1.425 1.035l-1.365-.54a1.38 1.38 0 0 0-.78 0l-1.365.54c-.84.33-1.485-.135-1.425-1.035l.09-1.47c.015-.225-.09-.555-.24-.72l-.93-1.14c-.585-.69-.33-1.455.54-1.68l1.425-.36c.225-.06.495-.27.615-.465l.795-1.23c.495-.765 1.275-.765 1.77 0l.795 1.23c.12.195.39.405.615.465l1.425.36c.87.225 1.125.99.54 1.68z" fill="#ED2027"/>
</svg>
