<svg width="54" height="54" viewBox="0 0 54 54" fill="none" xmlns="http://www.w3.org/2000/svg">
    <path opacity=".4" d="M42.75 20.25c0 3.262-.968 6.255-2.633 8.753-2.43 3.6-6.277 6.142-10.755 6.794A13.57 13.57 0 0 1 27 36c-.81 0-1.598-.068-2.363-.203-4.477-.652-8.325-3.194-10.755-6.794a15.678 15.678 0 0 1-2.632-8.753C11.25 11.543 18.292 4.5 27 4.5c8.707 0 15.75 7.043 15.75 15.75z" fill="#1ECAD3"/>
    <path d="m47.812 41.557-3.712.878c-.833.203-1.485.832-1.665 1.665l-.788 3.307c-.427 1.8-2.722 2.34-3.915.923L27 36 16.267 48.352c-1.192 1.418-3.487.878-3.915-.922l-.787-3.307c-.203-.833-.855-1.485-1.665-1.665l-3.713-.878c-1.71-.405-2.317-2.542-1.08-3.78l8.775-8.775c2.43 3.6 6.278 6.142 10.755 6.795a13.57 13.57 0 0 0 2.363.203c.81 0 1.597-.068 2.362-.203 4.478-.653 8.325-3.195 10.755-6.795l8.775 8.775c1.238 1.215.63 3.353-1.08 3.758zM28.305 13.455l1.327 2.655c.18.36.653.72 1.08.788l2.408.404c1.53.248 1.89 1.373.787 2.476l-1.867 1.867c-.315.315-.495.922-.383 1.372l.54 2.318c.428 1.822-.54 2.543-2.16 1.575l-2.25-1.328c-.405-.247-1.08-.247-1.485 0l-2.25 1.328c-1.62.945-2.587.247-2.16-1.575l.54-2.318c.09-.427-.067-1.057-.382-1.372l-1.868-1.867c-1.102-1.103-.742-2.205.788-2.476l2.407-.404c.405-.068.878-.428 1.058-.788l1.327-2.655c.653-1.44 1.823-1.44 2.543 0z" fill="#1ECAD3"/>
</svg>
